<?xml version="1.0" standalone="no"?>
<svg xmlns="http://www.w3.org/2000/svg" xmlns:xlink="http://www.w3.org/1999/xlink" width="887pt" height="863pt" viewBox="0.00 0.00 887.36 863.00">
<g id="graph0" class="graph" transform="translate(4,859) scale(1)" data-name="G">

<polygon fill="#2e3e56" stroke="none" points="-4,4 -4,-859 883.36,-859 883.36,4 -4,4" style=""/>
<g id="clust1" class="cluster" data-name="clusterTokenDistributor">

<path fill="#445773" stroke="#445773" d="M20,-147C20,-147 859.36,-147 859.36,-147 865.36,-147 871.36,-153 871.36,-159 871.36,-159 871.36,-698 871.36,-698 871.36,-704 865.36,-710 859.36,-710 859.36,-710 20,-710 20,-710 14,-710 8,-704 8,-698 8,-698 8,-159 8,-159 8,-153 14,-147 20,-147" style=""/>
<text text-anchor="middle" x="439.68" y="-693.4" font-family="Times,serif" font-size="14.00" fill="#f0f0f0" style="">TokenDistributor</text>
</g>
<g id="clust2" class="cluster" data-name="clusterNBKToken">

<path fill="#3b4b63" stroke="#e8726d" stroke-dasharray="5,2" d="M678.48,-8C678.48,-8 771.9,-8 771.9,-8 777.9,-8 783.9,-14 783.9,-20 783.9,-20 783.9,-127 783.9,-127 783.9,-133 777.9,-139 771.9,-139 771.9,-139 678.48,-139 678.48,-139 672.48,-139 666.48,-133 666.48,-127 666.48,-127 666.48,-20 666.48,-20 666.48,-14 672.48,-8 678.48,-8" style=""/>
<text text-anchor="middle" x="725.19" y="-122.4" font-family="Times,serif" font-size="14.00" fill="#f0f0f0" style="">NBKToken</text>
</g>
<g id="clust3" class="cluster" data-name="cluster_01">

<polygon fill="#2e3e56" stroke="black" points="51.12,-718 51.12,-847 444.63,-847 444.63,-718 51.12,-718" style=""/>
<text text-anchor="middle" x="247.88" y="-830.4" font-family="Times,serif" font-size="14.00" style="">Legend</text>
</g>
<!-- TokenDistributor.&lt;Constructor&gt; -->
<g id="node1" class="node" pointer-events="visible" data-name="TokenDistributor.&lt;Constructor&gt;">

<ellipse fill="#ff9797" stroke="#ff9797" stroke-width="3" cx="124.12" cy="-659" rx="67.55" ry="18" style=""/>
<text text-anchor="middle" x="124.12" y="-654.8" font-family="Times,serif" font-size="14.00" style="">&lt;Constructor&gt;</text>
</g>
<!-- TokenDistributor.NBKToken -->
<g id="node11" class="node" pointer-events="visible" data-name="TokenDistributor.NBKToken">

<ellipse fill="#edad56" stroke="#edad56" stroke-width="3" cx="409.63" cy="-659" rx="56.19" ry="18" style=""/>
<text text-anchor="middle" x="409.63" y="-654.8" font-family="Times,serif" font-size="14.00" style="">NBKToken</text>
</g>
<!-- TokenDistributor.&lt;Constructor&gt;&#45;&gt;TokenDistributor.NBKToken -->
<g id="edge1" class="edge" data-name="TokenDistributor.&lt;Constructor&gt;-&gt;TokenDistributor.NBKToken">

<path fill="none" stroke="#1bc6a6" stroke-width="2" d="M193.03,-659C237.31,-659 294.93,-659 339.47,-659" style=""/>
<polygon fill="#1bc6a6" stroke="#1bc6a6" stroke-width="2" points="339.22,-662.5 349.22,-659 339.22,-655.5 339.22,-662.5" style=""/>
</g>
<!-- TokenDistributor.distributeTokensBatch -->
<g id="node2" class="node" pointer-events="visible" data-name="TokenDistributor.distributeTokensBatch">

<ellipse fill="#ffbdb9" stroke="#ffbdb9" stroke-width="3" cx="124.12" cy="-578" rx="98.44" ry="18" style=""/>
<text text-anchor="middle" x="124.12" y="-573.8" font-family="Times,serif" font-size="14.00" style="">distributeTokensBatch</text>
</g>
<!-- TokenDistributor.distributeTokens -->
<g id="node3" class="node" pointer-events="visible" data-name="TokenDistributor.distributeTokens">

<ellipse fill="#edad56" stroke="#edad56" stroke-width="3" cx="409.63" cy="-551" rx="75.89" ry="18" style=""/>
<text text-anchor="middle" x="409.63" y="-546.8" font-family="Times,serif" font-size="14.00" style="">distributeTokens</text>
</g>
<!-- TokenDistributor.distributeTokensBatch&#45;&gt;TokenDistributor.distributeTokens -->
<g id="edge2" class="edge" data-name="TokenDistributor.distributeTokensBatch-&gt;TokenDistributor.distributeTokens">

<path fill="none" stroke="#80e097" stroke-width="2" d="M214.05,-569.53C249.48,-566.16 290.06,-562.29 324.95,-558.97" style=""/>
<polygon fill="#80e097" stroke="#80e097" stroke-width="2" points="324.9,-562.49 334.52,-558.06 324.23,-555.52 324.9,-562.49" style=""/>
</g>
<!-- TokenDistributor.ArrayMismatchBatchDistribution -->
<g id="node12" class="node" pointer-events="visible" data-name="TokenDistributor.ArrayMismatchBatchDistribution">

<ellipse fill="#edad56" stroke="#edad56" stroke-width="3" cx="409.63" cy="-605" rx="141.26" ry="18" style=""/>
<text text-anchor="middle" x="409.63" y="-600.8" font-family="Times,serif" font-size="14.00" style="">ArrayMismatchBatchDistribution</text>
</g>
<!-- TokenDistributor.distributeTokensBatch&#45;&gt;TokenDistributor.ArrayMismatchBatchDistribution -->
<g id="edge3" class="edge" data-name="TokenDistributor.distributeTokensBatch-&gt;TokenDistributor.ArrayMismatchBatchDistribution">

<path fill="none" stroke="#1bc6a6" stroke-width="2" d="M214.05,-586.47C234.82,-588.45 257.35,-590.59 279.48,-592.7" style=""/>
<polygon fill="#1bc6a6" stroke="#1bc6a6" stroke-width="2" points="279.14,-596.18 289.42,-593.65 279.8,-589.21 279.14,-596.18" style=""/>
</g>
<!-- TokenDistributor.NotEnoughTokensOnDistributor -->
<g id="node13" class="node" pointer-events="visible" data-name="TokenDistributor.NotEnoughTokensOnDistributor">

<ellipse fill="#edad56" stroke="#edad56" stroke-width="3" cx="725.19" cy="-524" rx="138.35" ry="18" style=""/>
<text text-anchor="middle" x="725.19" y="-519.8" font-family="Times,serif" font-size="14.00" style="">NotEnoughTokensOnDistributor</text>
</g>
<!-- TokenDistributor.distributeTokens&#45;&gt;TokenDistributor.NotEnoughTokensOnDistributor -->
<g id="edge5" class="edge" data-name="TokenDistributor.distributeTokens-&gt;TokenDistributor.NotEnoughTokensOnDistributor">

<path fill="none" stroke="#1bc6a6" stroke-width="2" d="M482.96,-544.77C515.78,-541.95 555.65,-538.51 593.43,-535.26" style=""/>
<polygon fill="#1bc6a6" stroke="#1bc6a6" stroke-width="2" points="593.48,-538.77 603.14,-534.42 592.88,-531.79 593.48,-538.77" style=""/>
</g>
<!-- TokenDistributor.TransferFailed -->
<g id="node14" class="node" pointer-events="visible" data-name="TokenDistributor.TransferFailed">

<ellipse fill="#edad56" stroke="#edad56" stroke-width="3" cx="725.19" cy="-578" rx="67.76" ry="18" style=""/>
<text text-anchor="middle" x="725.19" y="-573.8" font-family="Times,serif" font-size="14.00" style="">TransferFailed</text>
</g>
<!-- TokenDistributor.distributeTokens&#45;&gt;TokenDistributor.TransferFailed -->
<g id="edge7" class="edge" data-name="TokenDistributor.distributeTokens-&gt;TokenDistributor.TransferFailed">

<path fill="none" stroke="#1bc6a6" stroke-width="2" d="M482.96,-557.23C531.79,-561.43 596.2,-566.98 646.19,-571.28" style=""/>
<polygon fill="#1bc6a6" stroke="#1bc6a6" stroke-width="2" points="645.61,-574.75 655.87,-572.12 646.21,-567.77 645.61,-574.75" style=""/>
</g>
<!-- NBKToken.balanceOf -->
<g id="node22" class="node" pointer-events="visible" data-name="NBKToken.balanceOf">

<ellipse fill="#edad56" stroke="#edad56" stroke-width="3" cx="725.19" cy="-88" rx="50.92" ry="18" style=""/>
<text text-anchor="middle" x="725.19" y="-83.8" font-family="Times,serif" font-size="14.00" style="">balanceOf</text>
</g>
<!-- TokenDistributor.distributeTokens&#45;&gt;NBKToken.balanceOf -->
<g id="edge4" class="edge" data-name="TokenDistributor.distributeTokens-&gt;NBKToken.balanceOf">

<path fill="none" stroke="white" stroke-width="2" d="M486.36,-553.41C510.25,-550.18 534.66,-542 551.01,-524 608.2,-461.05 536.1,-211.12 587.01,-143 605.13,-118.76 635.67,-105.18 663.34,-97.59" style=""/>
<polygon fill="white" stroke="white" stroke-width="2" points="663.99,-101.03 672.85,-95.23 662.31,-94.24 663.99,-101.03" style=""/>
</g>
<!-- NBKToken.transfer -->
<g id="node23" class="node" pointer-events="visible" data-name="NBKToken.transfer">

<ellipse fill="#edad56" stroke="#edad56" stroke-width="3" cx="725.19" cy="-34" rx="40.55" ry="18" style=""/>
<text text-anchor="middle" x="725.19" y="-29.8" font-family="Times,serif" font-size="14.00" style="">transfer</text>
</g>
<!-- TokenDistributor.distributeTokens&#45;&gt;NBKToken.transfer -->
<g id="edge6" class="edge" data-name="TokenDistributor.distributeTokens-&gt;NBKToken.transfer">

<path fill="none" stroke="white" stroke-width="2" d="M486.16,-553.62C510.19,-550.43 534.72,-542.23 551.01,-524 619.77,-447.04 518.42,-138.11 587.01,-61 607.72,-37.72 642.14,-31 671.32,-30.08" style=""/>
<polygon fill="white" stroke="white" stroke-width="2" points="671.28,-33.58 681.27,-30.04 671.25,-26.58 671.28,-33.58" style=""/>
</g>
<!-- TokenDistributor.withdrawFunds -->
<g id="node4" class="node" pointer-events="visible" data-name="TokenDistributor.withdrawFunds">

<ellipse fill="#ffbdb9" stroke="#ffbdb9" stroke-width="3" cx="124.12" cy="-497" rx="71.25" ry="18" style=""/>
<text text-anchor="middle" x="124.12" y="-492.8" font-family="Times,serif" font-size="14.00" style="">withdrawFunds</text>
</g>
<!-- TokenDistributor.InvalidWithdrawAmount -->
<g id="node15" class="node" pointer-events="visible" data-name="TokenDistributor.InvalidWithdrawAmount">

<ellipse fill="#edad56" stroke="#edad56" stroke-width="3" cx="409.63" cy="-335" rx="108.82" ry="18" style=""/>
<text text-anchor="middle" x="409.63" y="-330.8" font-family="Times,serif" font-size="14.00" style="">InvalidWithdrawAmount</text>
</g>
<!-- TokenDistributor.withdrawFunds&#45;&gt;TokenDistributor.InvalidWithdrawAmount -->
<g id="edge8" class="edge" data-name="TokenDistributor.withdrawFunds-&gt;TokenDistributor.InvalidWithdrawAmount">

<path fill="none" stroke="#1bc6a6" stroke-width="2" d="M192.85,-490.67C207.24,-486.57 221.35,-480.11 232.25,-470 269.34,-435.59 230.19,-395.34 268.25,-362 275.86,-355.33 284.61,-350.1 293.94,-346.02" style=""/>
<polygon fill="#1bc6a6" stroke="#1bc6a6" stroke-width="2" points="295.09,-349.33 303.2,-342.52 292.61,-342.78 295.09,-349.33" style=""/>
</g>
<!-- TokenDistributor.owner -->
<g id="node16" class="node" pointer-events="visible" data-name="TokenDistributor.owner">

<ellipse fill="#edad56" stroke="#edad56" stroke-width="3" cx="409.63" cy="-389" rx="35.34" ry="18" style=""/>
<text text-anchor="middle" x="409.63" y="-384.8" font-family="Times,serif" font-size="14.00" style="">owner</text>
</g>
<!-- TokenDistributor.withdrawFunds&#45;&gt;TokenDistributor.owner -->
<g id="edge9" class="edge" data-name="TokenDistributor.withdrawFunds-&gt;TokenDistributor.owner">

<path fill="none" stroke="#1bc6a6" stroke-width="2" d="M189.91,-488.74C204.74,-484.73 219.79,-478.8 232.25,-470 255.81,-453.36 244.22,-431.96 268.25,-416 295.32,-398.02 331.42,-391.37 360.24,-389.16" style=""/>
<polygon fill="#1bc6a6" stroke="#1bc6a6" stroke-width="2" points="360.1,-392.67 369.89,-388.61 359.7,-385.69 360.1,-392.67" style=""/>
</g>
<!-- TokenDistributor.DailyLimitWithdrawReached -->
<g id="node17" class="node" pointer-events="visible" data-name="TokenDistributor.DailyLimitWithdrawReached">

<ellipse fill="#edad56" stroke="#edad56" stroke-width="3" cx="409.63" cy="-443" rx="125.61" ry="18" style=""/>
<text text-anchor="middle" x="409.63" y="-438.8" font-family="Times,serif" font-size="14.00" style="">DailyLimitWithdrawReached</text>
</g>
<!-- TokenDistributor.withdrawFunds&#45;&gt;TokenDistributor.DailyLimitWithdrawReached -->
<g id="edge10" class="edge" data-name="TokenDistributor.withdrawFunds-&gt;TokenDistributor.DailyLimitWithdrawReached">

<path fill="none" stroke="#1bc6a6" stroke-width="2" d="M183.52,-485.88C221.88,-478.57 272.87,-468.86 316.62,-460.53" style=""/>
<polygon fill="#1bc6a6" stroke="#1bc6a6" stroke-width="2" points="317.2,-463.98 326.37,-458.67 315.89,-457.1 317.2,-463.98" style=""/>
</g>
<!-- TokenDistributor.payable -->
<g id="node18" class="node" pointer-events="visible" data-name="TokenDistributor.payable">

<ellipse fill="#edad56" stroke="#edad56" stroke-width="3" cx="409.63" cy="-497" rx="41.13" ry="18" style=""/>
<text text-anchor="middle" x="409.63" y="-492.8" font-family="Times,serif" font-size="14.00" style="">payable</text>
</g>
<!-- TokenDistributor.withdrawFunds&#45;&gt;TokenDistributor.payable -->
<g id="edge11" class="edge" data-name="TokenDistributor.withdrawFunds-&gt;TokenDistributor.payable">

<path fill="none" stroke="#1bc6a6" stroke-width="2" d="M196.67,-497C245.53,-497 309.29,-497 354.07,-497" style=""/>
<polygon fill="#1bc6a6" stroke="#1bc6a6" stroke-width="2" points="354,-500.5 364,-497 354,-493.5 354,-500.5" style=""/>
</g>
<!-- TokenDistributor.setDailyLimit -->
<g id="node5" class="node" pointer-events="visible" data-name="TokenDistributor.setDailyLimit">

<ellipse fill="#ffbdb9" stroke="#ffbdb9" stroke-width="3" cx="124.12" cy="-443" rx="64.86" ry="18" style=""/>
<text text-anchor="middle" x="124.12" y="-438.8" font-family="Times,serif" font-size="14.00" style="">setDailyLimit</text>
</g>
<!-- TokenDistributor.DailyLimitUpdateValueIncorrect -->
<g id="node19" class="node" pointer-events="visible" data-name="TokenDistributor.DailyLimitUpdateValueIncorrect">

<ellipse fill="#edad56" stroke="#edad56" stroke-width="3" cx="409.63" cy="-281" rx="139.98" ry="18" style=""/>
<text text-anchor="middle" x="409.63" y="-276.8" font-family="Times,serif" font-size="14.00" style="">DailyLimitUpdateValueIncorrect</text>
</g>
<!-- TokenDistributor.setDailyLimit&#45;&gt;TokenDistributor.DailyLimitUpdateValueIncorrect -->
<g id="edge12" class="edge" data-name="TokenDistributor.setDailyLimit-&gt;TokenDistributor.DailyLimitUpdateValueIncorrect">

<path fill="none" stroke="#1bc6a6" stroke-width="2" d="M188.11,-437.94C204.1,-433.95 220.16,-427.22 232.25,-416 269.34,-381.59 230.19,-341.34 268.25,-308 272.62,-304.17 277.37,-300.82 282.38,-297.88" style=""/>
<polygon fill="#1bc6a6" stroke="#1bc6a6" stroke-width="2" points="283.72,-301.13 291.05,-293.48 280.55,-294.88 283.72,-301.13" style=""/>
</g>
<!-- TokenDistributor.getRemainingDailyLimit -->
<g id="node6" class="node" pointer-events="visible" data-name="TokenDistributor.getRemainingDailyLimit">

<ellipse fill="#ffbdb9" stroke="#ffbdb9" stroke-width="3" cx="124.12" cy="-389" rx="108.25" ry="18" style=""/>
<text text-anchor="middle" x="124.12" y="-384.8" font-family="Times,serif" font-size="14.00" style="">getRemainingDailyLimit</text>
</g>
<!-- TokenDistributor.getContractBalance -->
<g id="node7" class="node" pointer-events="visible" data-name="TokenDistributor.getContractBalance">

<ellipse fill="#ffbdb9" stroke="#ffbdb9" stroke-width="3" cx="124.12" cy="-335" rx="87.37" ry="18" style=""/>
<text text-anchor="middle" x="124.12" y="-330.8" font-family="Times,serif" font-size="14.00" style="">getContractBalance</text>
</g>
<!-- TokenDistributor.pauseDistributor -->
<g id="node8" class="node" pointer-events="visible" data-name="TokenDistributor.pauseDistributor">

<ellipse fill="#ffbdb9" stroke="#ffbdb9" stroke-width="3" cx="124.12" cy="-281" rx="75.31" ry="18" style=""/>
<text text-anchor="middle" x="124.12" y="-276.8" font-family="Times,serif" font-size="14.00" style="">pauseDistributor</text>
</g>
<!-- TokenDistributor._pause -->
<g id="node20" class="node" pointer-events="visible" data-name="TokenDistributor._pause">

<ellipse fill="#edad56" stroke="#edad56" stroke-width="3" cx="409.63" cy="-227" rx="37.71" ry="18" style=""/>
<text text-anchor="middle" x="409.63" y="-222.8" font-family="Times,serif" font-size="14.00" style="">_pause</text>
</g>
<!-- TokenDistributor.pauseDistributor&#45;&gt;TokenDistributor._pause -->
<g id="edge13" class="edge" data-name="TokenDistributor.pauseDistributor-&gt;TokenDistributor._pause">

<path fill="none" stroke="#1bc6a6" stroke-width="2" d="M185.6,-269.48C237.88,-259.52 312.45,-245.32 360.7,-236.13" style=""/>
<polygon fill="#1bc6a6" stroke="#1bc6a6" stroke-width="2" points="361.13,-239.61 370.3,-234.3 359.82,-232.73 361.13,-239.61" style=""/>
</g>
<!-- TokenDistributor.unpauseDistributor -->
<g id="node9" class="node" pointer-events="visible" data-name="TokenDistributor.unpauseDistributor">

<ellipse fill="#ffbdb9" stroke="#ffbdb9" stroke-width="3" cx="124.12" cy="-227" rx="85.12" ry="18" style=""/>
<text text-anchor="middle" x="124.12" y="-222.8" font-family="Times,serif" font-size="14.00" style="">unpauseDistributor</text>
</g>
<!-- TokenDistributor._unpause -->
<g id="node21" class="node" pointer-events="visible" data-name="TokenDistributor._unpause">

<ellipse fill="#edad56" stroke="#edad56" stroke-width="3" cx="409.63" cy="-173" rx="47.52" ry="18" style=""/>
<text text-anchor="middle" x="409.63" y="-168.8" font-family="Times,serif" font-size="14.00" style="">_unpause</text>
</g>
<!-- TokenDistributor.unpauseDistributor&#45;&gt;TokenDistributor._unpause -->
<g id="edge14" class="edge" data-name="TokenDistributor.unpauseDistributor-&gt;TokenDistributor._unpause">

<path fill="none" stroke="#1bc6a6" stroke-width="2" d="M190.52,-214.54C239.7,-205.18 306.35,-192.48 352.99,-183.6" style=""/>
<polygon fill="#1bc6a6" stroke="#1bc6a6" stroke-width="2" points="353.44,-187.08 362.6,-181.77 352.13,-180.2 353.44,-187.08" style=""/>
</g>
<!-- TokenDistributor.&lt;Receive Ether&gt; -->
<g id="node10" class="node" pointer-events="visible" data-name="TokenDistributor.&lt;Receive Ether&gt;">

<ellipse fill="#ffbdb9" stroke="brown" stroke-width="3" cx="124.12" cy="-173" rx="76.21" ry="18" style=""/>
<text text-anchor="middle" x="124.12" y="-168.8" font-family="Times,serif" font-size="14.00" style="">&lt;Receive Ether&gt;</text>
</g>
<!-- key -->
<g id="node24" class="node" pointer-events="visible" data-name="key">

<polygon fill="#edad56" stroke="none" stroke-width="3" points="189.12,-814 59.12,-814 59.12,-726 189.12,-726 189.12,-814" style=""/>
<text text-anchor="start" x="108.76" y="-795.4" font-family="Times,serif" font-size="14.00" style="">Internal Call</text>
<text text-anchor="start" x="104.87" y="-775.4" font-family="Times,serif" font-size="14.00" style="">External Call</text>
<text text-anchor="start" x="82.33" y="-755.4" font-family="Times,serif" font-size="14.00" style="">Defined Contract</text>
<text text-anchor="start" x="68.73" y="-735.4" font-family="Times,serif" font-size="14.00" style="">Undefined Contract</text>
</g>
<!-- key2 -->
<g id="node25" class="node" pointer-events="visible" data-name="key2">

<polygon fill="#edad56" stroke="none" stroke-width="3" points="436.63,-814 382.63,-814 382.63,-726 436.63,-726 436.63,-814" style=""/>
<text text-anchor="start" x="399.63" y="-795.4" font-family="Times,serif" font-size="14.00" style="">   </text>
<text text-anchor="start" x="399.63" y="-775.4" font-family="Times,serif" font-size="14.00" style="">   </text>
<polygon fill="#445773" stroke="none" points="397.63,-750 397.63,-770 422.63,-770 422.63,-750 397.63,-750" style=""/>
<text text-anchor="start" x="399.63" y="-755.4" font-family="Times,serif" font-size="14.00" style="">   </text>
<polygon fill="none" stroke="#e8726d" points="399.63,-732 399.63,-748 420.63,-748 420.63,-732 399.63,-732" style=""/>
</g>
<!-- key&#45;&gt;key2 -->
<g id="edge15" class="edge" data-name="key-&gt;key2">

<path fill="none" stroke="#1bc6a6" stroke-width="2" d="M182.12,-800C272.99,-800 298.9,-800 383.68,-800" style=""/>
<polygon fill="#1bc6a6" stroke="#1bc6a6" stroke-width="2" points="383.6,-803.5 393.6,-800 383.6,-796.5 383.6,-803.5" style=""/>
</g>
<!-- key&#45;&gt;key2 -->
<g id="edge16" class="edge" data-name="key-&gt;key2">

<path fill="none" stroke="white" stroke-width="2" d="M182.12,-780C272.99,-780 298.9,-780 383.68,-780" style=""/>
<polygon fill="white" stroke="white" stroke-width="2" points="383.6,-783.5 393.6,-780 383.6,-776.5 383.6,-783.5" style=""/>
</g>
</g>
</svg>